Coordinates
version=1
nRows=34
nColumns=34
inDegrees=no

Units are S.I. units (second, meters, Newtons, ...)
If the header above contains a line with 'inDegrees', this indicates whether rotational values are in degrees (yes) or radians (no).

endheader
time	pelvis_tilt	pelvis_list	pelvis_rotation	pelvis_tx	pelvis_ty	pelvis_tz	hip_flexion_r	hip_adduction_r	hip_rotation_r	knee_angle_r	ankle_angle_r	subtalar_angle_r	mtp_angle_r	hip_flexion_l	hip_adduction_l	hip_rotation_l	knee_angle_l	ankle_angle_l	subtalar_angle_l	mtp_angle_l	lumbar_extension	lumbar_bending	lumbar_rotation	arm_flex_r	arm_add_r	arm_rot_r	elbow_flex_r	pro_sup_r	arm_flex_l	arm_add_l	arm_rot_l	elbow_flex_l	pro_sup_l
6.72	-0.17652	0.107164	-0.056297	-0.258034	0.914004	-0.5396	0.635948	-0.0842799	0.0427861	0.722238	0.456949	0.179406	-0.00241763	0.805346	-0.157321	-0.151134	0.95445	-0.242753	-0.207365	-0.00241763	-0.133151	-0.0547436	-0.0203768	0.0928995	-0.215957	0.038927	2.03921	1.78164	0.107862	-0.173411	-0.0324958	2.06233	1.82943
6.73	-0.203933	0.104551	-0.0516524	-0.26465	0.907026	-0.540591	0.687745	-0.0825327	0.0374444	0.749171	0.460202	0.170847	-0.00241763	0.852038	-0.162345	-0.147844	0.970871	-0.242244	-0.220315	-0.00241763	-0.131085	-0.0494897	-0.026963	0.117715	-0.216283	0.0382728	2.04631	1.78331	0.128853	-0.174875	-0.0411236	2.07369	1.83135
6.74	-0.232319	0.102193	-0.0466155	-0.271378	0.899638	-0.541679	0.741012	-0.0820077	0.0317813	0.776646	0.463495	0.162569	-0.00241763	0.899739	-0.16641	-0.144351	0.987008	-0.241188	-0.235112	-0.00241763	-0.128086	-0.0444135	-0.0335966	0.142158	-0.216654	0.0375907	2.05344	1.78427	0.149963	-0.176198	-0.0476788	2.08536	1.82729
6.75	-0.261651	0.100441	-0.04133	-0.278202	0.891846	-0.54286	0.795538	-0.0828298	0.0267251	0.804296	0.466877	0.153967	-0.00241763	0.94758	-0.168872	-0.14004	1.00215	-0.235143	-0.248885	-0.00241763	-0.123942	-0.0399891	-0.0396532	0.165988	-0.216791	0.0361985	2.06109	1.78577	0.171717	-0.177388	-0.0532117	2.09583	1.82492
6.76	-0.291049	0.0989054	-0.0366705	-0.285116	0.883678	-0.544077	0.850578	-0.0841517	0.022535	0.832297	0.470065	0.145026	-0.00241763	0.994821	-0.171132	-0.135824	1.01713	-0.223438	-0.260229	-0.00241763	-0.119627	-0.0359085	-0.0445302	0.189633	-0.216781	0.0344387	2.06923	1.78655	0.19401	-0.17813	-0.0593868	2.10527	1.82726
6.77	-0.319225	0.0972216	-0.0327798	-0.292075	0.875275	-0.545316	0.904544	-0.0856363	0.0187423	0.860328	0.473046	0.135968	-0.00241763	1.04072	-0.173899	-0.132599	1.03247	-0.211593	-0.27187	-0.00241763	-0.11667	-0.0317738	-0.0487691	0.213318	-0.217154	0.033187	2.07756	1.78268	0.216525	-0.17846	-0.0654912	2.1147	1.82985
6.78	-0.345308	0.0956575	-0.029473	-0.298985	0.866827	-0.546577	0.956041	-0.0875467	0.0153327	0.887726	0.476039	0.12675	-0.00241763	1.08402	-0.176847	-0.130946	1.04747	-0.20142	-0.285242	-0.00241763	-0.115972	-0.0277576	-0.0526506	0.237042	-0.218102	0.0321525	2.08539	1.77831	0.239485	-0.178294	-0.0705082	2.12366	1.82975
6.79	-0.36936	0.0947572	-0.0270452	-0.3058	0.858356	-0.547794	1.00544	-0.0897841	0.013174	0.914886	0.478755	0.11689	-0.00241763	1.12434	-0.18006	-0.130926	1.06189	-0.189701	-0.298878	-0.00241763	-0.117337	-0.0245212	-0.0556024	0.261379	-0.218538	0.0304973	2.0923	1.77705	0.262893	-0.177728	-0.0751917	2.13128	1.82986
6.8	-0.391755	0.0946415	-0.0256756	-0.312534	0.849773	-0.54887	1.05358	-0.0918419	0.012837	0.942449	0.480807	0.105828	-0.00241763	1.16242	-0.183841	-0.131804	1.07639	-0.175693	-0.312251	-0.00241763	-0.120284	-0.0224555	-0.0576434	0.287231	-0.216911	0.0278982	2.09778	1.77848	0.286066	-0.177717	-0.080237	2.13807	1.83206
6.81	-0.412265	0.0946159	-0.0249477	-0.319133	0.841162	-0.549798	1.09948	-0.093163	0.0136993	0.969561	0.482264	0.0932136	-0.00241763	1.1984	-0.188085	-0.132707	1.09118	-0.161396	-0.326508	-0.00241763	-0.125022	-0.0208243	-0.059652	0.314398	-0.213538	0.0250867	2.10134	1.78394	0.308638	-0.178702	-0.0852025	2.14454	1.83456
6.82	-0.430932	0.0937579	-0.0241632	-0.325504	0.832718	-0.550695	1.14219	-0.093788	0.014489	0.995118	0.483113	0.0793113	-0.00241763	1.23236	-0.192265	-0.132849	1.10579	-0.14808	-0.342028	-0.00241763	-0.131356	-0.0183224	-0.0623634	0.341288	-0.210389	0.0238859	2.10376	1.78783	0.330701	-0.179734	-0.0897413	2.1502	1.83442
6.83	-0.448596	0.0920675	-0.0227542	-0.331679	0.824456	-0.551704	1.18286	-0.094693	0.0147317	1.01955	0.483241	0.0649725	-0.00241763	1.26543	-0.195609	-0.131641	1.12012	-0.136313	-0.358341	-0.00241763	-0.138114	-0.0147207	-0.0661334	0.366949	-0.208197	0.0248517	2.10535	1.789	0.35214	-0.180223	-0.0941757	2.15464	1.83278
6.84	-0.465308	0.0899893	-0.0206493	-0.337749	0.816294	-0.552845	1.22211	-0.096326	0.0149794	1.04361	0.483078	0.0503582	-0.00241763	1.2981	-0.197958	-0.128993	1.13464	-0.126225	-0.375284	-0.00241763	-0.145197	-0.0105146	-0.0708715	0.392262	-0.206133	0.0271492	2.10614	1.78668	0.372954	-0.180882	-0.0982735	2.15828	1.83169
6.85	-0.480368	0.0872287	-0.0182803	-0.343697	0.80823	-0.554029	1.25905	-0.0978085	0.0153923	1.06709	0.483012	0.034602	-0.00241763	1.32988	-0.200113	-0.124823	1.14977	-0.117281	-0.392052	-0.00241763	-0.153449	-0.00538474	-0.0756002	0.41816	-0.203844	0.0295667	2.10634	1.78383	0.393522	-0.182214	-0.101125	2.16109	1.83242
6.86	-0.493912	0.0834156	-0.0161034	-0.349482	0.800266	-0.555222	1.29366	-0.0986213	0.0154577	1.08972	0.482663	0.017652	-0.00241763	1.36078	-0.202438	-0.118654	1.16557	-0.108956	-0.407416	-0.00241763	-0.162553	0.00116702	-0.079083	0.444278	-0.202123	0.0315117	2.10652	1.7833	0.414151	-0.183487	-0.102187	2.16264	1.83241
6.87	-0.506137	0.0791899	-0.0142694	-0.355134	0.792408	-0.556464	1.32642	-0.0993726	0.0154135	1.11158	0.481783	0.000804401	-0.00241763	1.39059	-0.204245	-0.110642	1.18169	-0.101249	-0.421999	-0.00241763	-0.172217	0.00837091	-0.0810222	0.469987	-0.20171	0.0330655	2.10689	1.78677	0.435227	-0.18373	-0.10232	2.16264	1.83156
6.88	-0.516822	0.0755567	-0.0128912	-0.360689	0.78467	-0.557707	1.35738	-0.100275	0.016445	1.13285	0.480768	-0.0153905	-0.00241763	1.4187	-0.20542	-0.102237	1.19784	-0.0943669	-0.437599	-0.00241763	-0.182871	0.0148135	-0.0819271	0.495148	-0.202083	0.0345549	2.10748	1.79145	0.456753	-0.183467	-0.102369	2.16161	1.83422
6.89	-0.527034	0.0726566	-0.0125142	-0.366138	0.77691	-0.558852	1.38793	-0.100372	0.0190317	1.15393	0.479463	-0.0319372	-0.00241763	1.44638	-0.207238	-0.0942103	1.21432	-0.0881541	-0.453932	-0.00241763	-0.193107	0.0201488	-0.0822636	0.519954	-0.201995	0.0363166	2.10762	1.79584	0.4771	-0.184513	-0.102087	2.1605	1.84303
6.9	-0.53794	0.0699035	-0.0138047	-0.371453	0.768988	-0.559867	1.41945	-0.098777	0.0223268	1.17513	0.477125	-0.0496029	-0.00241763	1.47523	-0.210852	-0.0854753	1.23172	-0.0823844	-0.468739	-0.00241763	-0.201063	0.0251156	-0.0818436	0.544595	-0.201459	0.039343	2.10681	1.79673	0.495198	-0.187124	-0.101436	2.16034	1.84719
6.91	-0.54816	0.0673139	-0.0166825	-0.376604	0.761072	-0.560728	1.45038	-0.0957956	0.0258501	1.19634	0.474283	-0.0677851	-0.00241763	1.50352	-0.216019	-0.0759381	1.24974	-0.0773023	-0.481796	-0.00241763	-0.208337	0.0296273	-0.0797465	0.568708	-0.201639	0.0432777	2.10523	1.79783	0.513347	-0.189135	-0.10189	2.15919	1.84871
6.92	-0.555942	0.0657081	-0.0203754	-0.38156	0.753392	-0.561438	1.47864	-0.0924198	0.0303087	1.21729	0.472523	-0.085362	-0.00241763	1.52867	-0.221627	-0.0674977	1.26736	-0.0730174	-0.496007	-0.00241763	-0.217391	0.0323888	-0.075776	0.591759	-0.20264	0.0463949	2.10393	1.79918	0.533153	-0.19	-0.102027	2.15623	1.85126
6.93	-0.562338	0.0654174	-0.0241388	-0.386309	0.745878	-0.562093	1.50515	-0.0894624	0.0359226	1.23782	0.471739	-0.101954	-0.00241763	1.5516	-0.226684	-0.0606668	1.28419	-0.0695512	-0.513153	-0.00241763	-0.226953	0.0329146	-0.0715821	0.61374	-0.20335	0.048195	2.10259	1.80168	0.551974	-0.192016	-0.0992235	2.15335	1.85387
6.94	-0.569341	0.0659176	-0.0276222	-0.390884	0.73832	-0.562708	1.53202	-0.0871064	0.0418757	1.25796	0.469899	-0.118493	-0.00241763	1.57503	-0.231145	-0.0540707	1.30079	-0.0679596	-0.531734	-0.00241763	-0.234227	0.032112	-0.0687177	0.634646	-0.20331	0.050446	2.10049	1.80501	0.567668	-0.195919	-0.0946754	2.15222	1.85343
6.95	-0.577045	0.0664884	-0.0310126	-0.395359	0.730652	-0.563156	1.55951	-0.0846295	0.0475106	1.27772	0.466163	-0.136179	-0.00241763	1.59988	-0.236085	-0.0470413	1.31794	-0.0696454	-0.550162	-0.00241763	-0.239014	0.0310048	-0.0663808	0.654195	-0.203244	0.0540794	2.0984	1.80689	0.581975	-0.19944	-0.0913284	2.15209	1.85113
6.96	-0.584209	0.0667126	-0.0343532	-0.399772	0.722985	-0.563462	1.58615	-0.0818224	0.052605	1.29689	0.461977	-0.154568	-0.00241763	1.62518	-0.241846	-0.0398036	1.33576	-0.0748073	-0.568697	-0.00241763	-0.243152	0.0301115	-0.0634293	0.672598	-0.204135	0.058312	2.09747	1.806	0.596866	-0.201429	-0.088998	2.15165	1.84937
6.97	-0.589811	0.0670697	-0.0369075	-0.404088	0.715491	-0.563843	1.61076	-0.0802911	0.0574285	1.31556	0.458644	-0.171764	-0.00241763	1.64928	-0.246944	-0.0329333	1.35356	-0.082644	-0.587785	-0.00241763	-0.248067	0.0290202	-0.0609642	0.690398	-0.206019	0.0626869	2.09757	1.80171	0.612208	-0.20334	-0.0857847	2.15086	1.84763
6.98	-0.593619	0.0684748	-0.0385891	-0.408294	0.708238	-0.564352	1.6335	-0.0809973	0.06246	1.33416	0.455633	-0.186692	-0.00241763	1.67106	-0.250865	-0.0272742	1.37077	-0.0917454	-0.606768	-0.00241763	-0.253923	0.026746	-0.060003	0.707817	-0.207806	0.0668717	2.09751	1.79738	0.627287	-0.206193	-0.0813928	2.15032	1.84466
6.99	-0.596056	0.0708218	-0.0406688	-0.412452	0.701165	-0.564808	1.65503	-0.0822853	0.0674181	1.35249	0.451882	-0.200246	-0.00241763	1.69083	-0.255517	-0.0225267	1.38766	-0.0962931	-0.610865	-0.00241763	-0.260203	0.0231645	-0.0592846	0.724927	-0.208849	0.0702519	2.09681	1.79566	0.641887	-0.209398	-0.0765671	2.15041	1.84016
7	-0.597471	0.073399	-0.0436309	-0.416604	0.694203	-0.565143	1.67543	-0.0827315	0.0720858	1.37008	0.447488	-0.213963	-0.00241763	1.7092	-0.26162	-0.0182698	1.40434	-0.0989409	-0.610865	-0.00241763	-0.266572	0.0189423	-0.0579859	0.741754	-0.209629	0.0729123	2.09592	1.79362	0.656047	-0.212666	-0.072103	2.15019	1.84263
7.01	-0.596033	0.0766426	-0.0469904	-0.420683	0.687587	-0.565387	1.69255	-0.08269	0.0775844	1.3869	0.443245	-0.227759	-0.00241763	1.72338	-0.268446	-0.0155392	1.42036	-0.0949282	-0.610865	-0.00241763	-0.275614	0.0137937	-0.05723	0.759056	-0.209883	0.0734974	2.09148	1.83209	0.670428	-0.216961	-0.0710366	2.1463	1.88417
7.02	-0.594891	0.0800895	-0.0501227	-0.424663	0.680961	-0.565646	1.70996	-0.0831468	0.082937	1.40362	0.439097	-0.240828	-0.00241763	1.73712	-0.275384	-0.0139839	1.43538	-0.0935854	-0.610865	-0.00241763	-0.283148	0.00876837	-0.0560903	0.774151	-0.211643	0.0763306	2.09201	1.83101	0.683412	-0.221524	-0.066496	2.14728	1.88785
7.03	-0.593099	0.0832278	-0.0535289	-0.428513	0.674465	-0.565981	1.72647	-0.0842178	0.0870171	1.41989	0.433987	-0.253115	-0.00241763	1.74942	-0.282808	-0.0126435	1.44977	-0.0894138	-0.610865	-0.00241763	-0.290184	0.00441677	-0.0549702	0.788168	-0.213968	0.079969	2.09246	1.82934	0.694873	-0.225379	-0.0634469	2.14862	1.89181
7.04	-0.59097	0.0849506	-0.0563083	-0.432249	0.668112	-0.566492	1.74198	-0.0863679	0.0895136	1.43556	0.427969	-0.265448	-0.00241763	1.76117	-0.289264	-0.00960312	1.46362	-0.0833289	-0.610865	-0.00241763	-0.295978	0.00178355	-0.0552784	0.801337	-0.215605	0.0837832	2.09092	1.82779	0.704325	-0.228548	-0.0621566	2.1502	1.89425
7.05	-0.58788	0.0853698	-0.0572181	-0.435916	0.662001	-0.567173	1.7559	-0.0903755	0.0916806	1.45093	0.421533	-0.278156	-0.00241763	1.77146	-0.293013	-0.00532255	1.47642	-0.0747962	-0.610865	-0.00241763	-0.30173	0.000821085	-0.0578939	0.813791	-0.216554	0.0873585	2.0882	1.82665	0.712573	-0.231914	-0.0615787	2.15196	1.89498
